<!-- NewIcon.svg -->
<svg
  width="46"
  height="50"
  viewBox="0 0 46 50"
  fill="none"
  xmlns="http://www.w3.org/2000/svg"
>
  <circle cx="23.5" cy="16.5" r="16.5" fill="#ECCCB1" />
  <path
    d="M6.85195 38.62H8.17195V47.91H6.85195V38.62ZM4.75195 41.88H7.23195V42.95H4.75195V41.88ZM0.741953 39.35H2.06195V41.59H3.88195V39.35H5.19195V45.73H0.741953V39.35ZM2.06195 42.62V44.66H3.88195V42.62H2.06195ZM13.0412 39.16H14.2012V39.83C14.2012 41.84 12.7712 43.62 10.3712 44.09L9.80117 42.99C11.8912 42.63 13.0412 41.16 13.0412 39.83V39.16ZM13.3112 39.16H14.4612V39.83C14.4612 41.19 15.6012 42.63 17.7012 42.99L17.1312 44.09C14.7312 43.62 13.3112 41.87 13.3112 39.83V39.16ZM9.61117 45.68H17.9912V46.76H9.61117V45.68ZM23.8204 40.87H25.5804V41.95H23.8204V40.87ZM25.2204 38.63H26.5504V44.13H25.2204V38.63ZM23.4104 44.33C25.3704 44.33 26.5804 45 26.5804 46.12C26.5804 47.25 25.3704 47.9 23.4104 47.9C21.4504 47.9 20.2404 47.25 20.2404 46.12C20.2404 45 21.4504 44.33 23.4104 44.33ZM23.4104 45.34C22.2104 45.34 21.5704 45.59 21.5704 46.12C21.5704 46.64 22.2104 46.89 23.4104 46.89C24.6204 46.89 25.2604 46.64 25.2604 46.12C25.2604 45.59 24.6204 45.34 23.4104 45.34ZM20.9404 39.56H22.0204V40.14C22.0204 41.91 21.2004 43.53 19.4304 44.13L18.7504 43.08C20.2804 42.56 20.9404 41.33 20.9404 40.14V39.56ZM21.2204 39.56H22.2904V40.14C22.2904 41.23 22.9204 42.36 24.3804 42.85L23.7304 43.9C22.0104 43.33 21.2204 41.79 21.2204 40.14V39.56ZM19.1104 39.19H24.0904V40.25H19.1104V39.19ZM27.9996 44.06H36.3896V45.11H27.9996V44.06ZM29.9296 44.61H31.2696V47.89H29.9296V44.61ZM33.1296 44.61H34.4696V47.89H33.1296V44.61ZM28.9596 38.91H35.4196V41.62H30.3296V43.06H28.9796V40.64H34.0696V39.97H28.9596V38.91ZM28.9796 42.35H35.6496V43.4H28.9796V42.35ZM39.2588 39.66H40.3488V40.24C40.3488 42.01 39.5188 43.6 37.7288 44.19L37.0688 43.14C38.6088 42.63 39.2588 41.42 39.2588 40.24V39.66ZM39.5288 39.66H40.6088V40.24C40.6088 41.32 41.2288 42.38 42.7188 42.83L42.0888 43.87C40.3288 43.34 39.5288 41.89 39.5288 40.24V39.66ZM37.4188 39.25H42.4188V40.31H37.4188V39.25ZM43.1588 38.63H44.4888V44.12H43.1588V38.63ZM44.1188 40.76H45.7188V41.85H44.1188V40.76ZM41.4688 44.29C43.3888 44.29 44.5988 44.96 44.5988 46.09C44.5988 47.22 43.3888 47.89 41.4688 47.89C39.5388 47.89 38.3288 47.22 38.3288 46.09C38.3288 44.96 39.5388 44.29 41.4688 44.29ZM41.4688 45.33C40.2888 45.33 39.6488 45.57 39.6488 46.09C39.6488 46.61 40.2888 46.87 41.4688 46.87C42.6488 46.87 43.2788 46.61 43.2788 46.09C43.2788 45.57 42.6488 45.33 41.4688 45.33Z"
    fill="#ECCCB1"
  />
  <g clip-path="url(#clip0_1390_11682)">
    <rect width="24" height="24" transform="translate(11 4)" fill="#ECCCB1" />
    <path
      d="M14 8C14 7.73478 14.1054 7.48043 14.2929 7.29289C14.4804 7.10536 14.7348 7 15 7H17C17.2652 7 17.5196 7.10536 17.7071 7.29289C17.8946 7.48043 18 7.73478 18 8V12C18 12.2652 17.8946 12.5196 17.7071 12.7071C17.5196 12.8946 17.2652 13 17 13H15C14.7348 13 14.4804 12.8946 14.2929 12.7071C14.1054 12.5196 14 12.2652 14 12V8Z"
      stroke="black"
      stroke-width="2"
      stroke-linecap="round"
      stroke-linejoin="round"
    />
    <path
      d="M27 21C27 21.5304 27.2107 22.0391 27.5858 22.4142C27.9609 22.7893 28.4696 23 29 23C29.5304 23 30.0391 22.7893 30.4142 22.4142C30.7893 22.0391 31 21.5304 31 21C31 20.4696 30.7893 19.9609 30.4142 19.5858C30.0391 19.2107 29.5304 19 29 19C28.4696 19 27.9609 19.2107 27.5858 19.5858C27.2107 19.9609 27 20.4696 27 21Z"
      stroke="black"
      stroke-width="2"
      stroke-linecap="round"
      stroke-linejoin="round"
    />
    <path
      d="M21 9H28C30.761 9 33 12.134 33 16V21H31"
      stroke="black"
      stroke-width="2"
      stroke-linecap="round"
      stroke-linejoin="round"
    />
    <path
      d="M27 21H19"
      stroke="black"
      stroke-width="2"
      stroke-linecap="round"
      stroke-linejoin="round"
    />
    <path
      d="M27 9L28.5 16H33"
      stroke="black"
      stroke-width="2"
      stroke-linecap="round"
      stroke-linejoin="round"
    />
    <path
      d="M20.5 14H28"
      stroke="black"
      stroke-width="2"
      stroke-linecap="round"
      stroke-linejoin="round"
    />
    <path
      d="M23 9V14"
      stroke="black"
      stroke-width="2"
      stroke-linecap="round"
      stroke-linejoin="round"
    />
    <path
      d="M16 13V24"
      stroke="black"
      stroke-width="2"
      stroke-linecap="round"
      stroke-linejoin="round"
    />
  </g>
  <defs>
    <clipPath id="clip0_1390_11682">
      <rect
        width="24"
        height="24"
        fill="white"
        transform="translate(11 4)"
      />
    </clipPath>
  </defs>
</svg>
