<svg width="1654" height="1432" viewBox="0 0 1654 1432" fill="none" xmlns="http://www.w3.org/2000/svg">
<path d="M184.024 538.321C219.217 502.321 504.487 209.348 572.803 139.002V139C572.803 139 829.919 395.559 865.112 431.974C901.132 394.732 1116.85 177.486 1154.93 139.003C1154.93 139.003 1248.51 229.625 1552 542.459L1551.58 1347.3C1551.58 1347.3 1079.09 1348.54 760.286 1347.72C760.286 1347.72 183.217 1346.06 182.369 1345.65C182.369 1346.22 182.369 1346.8 182.369 1347.37V1347.72C182.368 1345.65 181.54 1345.65 182.368 1345.65H182.369C182.369 1123.52 182.373 541.621 184.024 538.321Z" fill="#897054"/>
<path d="M818 786.929L988.046 610.172V609.757C1081.55 512.479 1159.34 433 1160.98 433C1162.23 433 1167.19 437.139 1171.74 442.106C1176.71 447.489 1218.08 490.539 1348 625.488L1347.18 1145H1273.59H1196.56H1173.9H1147.13C1147.13 1145 1144.85 1101.12 1144.85 805.558L836.617 805.972L818 786.929Z" fill="white"/>
<path d="M386 627.183L480.748 529.884C532.878 476.474 576.321 433 576.734 433C577.563 433 610.248 465.708 649.14 505.869C688.446 546.032 720.716 581.224 720.716 584.536C720.716 587.436 678.515 633.807 532.464 784.93L545.704 800.249C552.737 808.945 601.56 860.284 749.679 1012.65L940 1014.72V1138.93L387.655 1141L386 627.183Z" fill="white"/>
</svg>
