<svg width="1654" height="1432" viewBox="0 0 1654 1432" fill="none" xmlns="http://www.w3.org/2000/svg">
<path d="M1563.69 1335.61V1321.69V1307.78H1653.36V1335.61H1622.44V1428.36H1594.61L1593.06 1337.15L1563.69 1335.61Z" fill="#897054"/>
<path d="M1460.73 1325.4C1465.68 1320.77 1474.95 1314.89 1481.76 1312.42C1488.56 1309.95 1497.52 1308.09 1501.85 1307.78C1506.18 1307.78 1515.15 1309.33 1521.95 1311.18C1529.06 1313.35 1539.57 1320.15 1559.05 1339.01L1534.32 1353.54L1525.97 1346.12C1519.79 1340.86 1513.6 1338.7 1504.02 1338.7C1496.29 1338.7 1488.25 1341.17 1484.54 1344.26C1480.83 1347.05 1476.19 1352.61 1474.34 1356.32C1472.48 1360.34 1470.93 1366.21 1470.93 1369.62C1470.93 1373.02 1473.1 1380.13 1475.57 1385.07C1478.05 1390.33 1484.85 1396.51 1491.03 1398.99C1499.38 1402.7 1504.02 1403.01 1512.37 1400.22C1518.24 1398.37 1525.04 1394.35 1527.83 1390.95C1532.77 1385.07 1533.08 1385.07 1545.14 1391.26C1551.94 1394.66 1557.51 1398.37 1557.51 1399.61C1557.51 1401.15 1553.18 1406.41 1547.61 1411.97C1542.05 1417.54 1532.15 1424.03 1525.97 1426.5C1519.48 1429.29 1509.27 1431.45 1503.4 1431.45C1497.52 1431.45 1487.32 1429.29 1480.83 1426.5C1474.64 1424.03 1465.37 1418.16 1460.73 1413.52C1455.78 1408.88 1449.6 1400.84 1447.13 1395.9C1444.65 1390.95 1442.49 1379.82 1442.18 1371.16C1442.18 1362.81 1444.34 1350.76 1447.13 1344.88C1449.91 1339.01 1456.09 1330.35 1460.73 1325.4Z" fill="#897054"/>
<path d="M1340.15 1386.62C1347.57 1366.22 1357.15 1339.94 1361.79 1328.5L1369.52 1307.47L1400.75 1309.33L1409.72 1334.06C1414.97 1347.67 1424.56 1374.25 1431.05 1392.8C1437.85 1411.35 1443.11 1427.12 1443.11 1427.74C1443.11 1428.05 1436 1428.36 1427.65 1428.36C1412.5 1428.36 1412.19 1428.05 1406 1406.72H1364.26L1360.24 1417.54C1356.84 1427.74 1355.61 1428.36 1342.62 1428.36C1334.89 1428.36 1328.09 1427.43 1327.47 1426.19C1326.85 1424.65 1332.42 1407.03 1340.15 1386.62Z" fill="#897054"/>
<path d="M1375.7 1377.35C1376.01 1376.42 1378.18 1370.54 1380.65 1364.05L1384.98 1352.61L1389 1363.43C1391.47 1369.31 1393.33 1375.18 1393.33 1376.42C1393.64 1377.96 1389.62 1378.89 1384.36 1378.89C1379.41 1378.89 1375.4 1378.27 1375.7 1377.35Z" fill="white"/>
<path d="M1222.96 1370.23C1222.66 1338.08 1223.58 1310.87 1225.13 1309.95C1226.67 1308.71 1239.97 1307.78 1255.12 1307.78C1274.91 1307.78 1285.42 1309.33 1293.46 1313.35C1300.26 1316.75 1306.45 1322.93 1310.16 1330.97C1313.56 1337.77 1316.34 1346.12 1316.34 1349.52C1316.34 1352.92 1312.94 1363.12 1300.88 1388.17L1310.16 1406.72C1315.1 1416.92 1319.43 1425.88 1319.43 1426.81C1319.43 1427.74 1312.63 1428.36 1288.51 1428.36L1278.31 1410.74C1271.2 1398.37 1265.94 1392.49 1261.3 1392.19C1254.81 1391.26 1254.5 1392.49 1254.5 1428.36H1223.58L1222.96 1370.23Z" fill="#897054"/>
<path d="M1254.5 1363.43V1349.52V1335.61H1266.87C1273.67 1335.61 1281.4 1337.77 1283.87 1340.24C1286.35 1342.72 1288.51 1346.43 1288.51 1347.97C1288.51 1349.52 1286.97 1353.85 1285.42 1357.25C1282.95 1362.2 1279.24 1363.43 1254.5 1363.43Z" fill="white"/>
<path d="M1121.55 1335.61V1321.69V1307.78H1211.22V1335.61L1181.84 1337.15L1181.22 1361.89C1180.92 1375.49 1180.61 1395.9 1180.3 1428.36H1152.47V1335.61H1121.55Z" fill="#897054"/>
<path d="M1012.72 1370.23C1012.41 1338.08 1013.33 1310.87 1014.88 1309.95C1016.43 1308.71 1023.23 1307.78 1030.03 1307.78C1042.71 1307.47 1042.71 1307.78 1079.81 1364.98L1082.9 1309.33H1110.73L1112.27 1428.36H1099.91C1087.54 1428.36 1087.23 1428.05 1045.8 1364.98L1044.25 1428.36H1013.33L1012.72 1370.23Z" fill="#897054"/>
<path d="M894.915 1329.42C901.408 1322.31 912.229 1314.89 919.031 1312.11C926.761 1309.33 937.274 1308.4 946.859 1309.33C956.753 1310.26 966.647 1313.66 974.376 1319.22C981.179 1324.17 989.836 1334.06 993.855 1341.79C998.493 1350.76 1000.97 1360.96 1000.97 1370.54C1000.97 1378.58 998.493 1390.33 995.092 1396.82C992 1403.01 985.816 1411.35 981.797 1415.06C978.087 1418.77 969.429 1424.03 962.936 1426.5C956.753 1429.29 946.24 1431.45 940.056 1431.45C933.563 1431.45 921.196 1428.05 912.848 1423.72C902.335 1418.77 894.606 1411.97 889.04 1403.01C884.402 1395.59 879.764 1384.77 878.528 1378.89C877.6 1373.02 878.219 1362.2 880.074 1355.09C881.929 1347.36 888.422 1336.54 894.915 1329.42Z" fill="#897054"/>
<path d="M908.21 1368.69C908.519 1360.03 910.993 1354.16 917.486 1347.67C924.597 1340.55 928.926 1338.7 939.747 1338.7C950.26 1338.7 954.898 1340.25 961.391 1347.05C966.028 1351.99 970.666 1359.1 971.594 1363.43C972.83 1368.07 971.903 1375.49 969.12 1381.98C966.028 1388.78 960.154 1394.97 953.352 1398.37C944.385 1402.39 940.056 1403.01 931.399 1400.53C925.525 1398.99 917.795 1393.73 914.394 1389.09C910.374 1383.53 908.21 1376.11 908.21 1368.69Z" fill="white"/>
<path d="M769.384 1331.59C772.785 1326.95 782.37 1319.53 791.336 1315.2C804.322 1309.02 811.124 1307.47 823.183 1308.71C832.458 1309.33 843.28 1313.04 850.082 1317.37C856.266 1321.39 863.996 1328.19 867.087 1332.21C872.344 1339.32 872.344 1339.63 866.469 1343.95C863.068 1346.43 857.193 1348.9 853.483 1349.52C849.155 1350.45 842.662 1348.28 838.024 1344.88C832.768 1340.86 824.729 1338.39 817.617 1338.7C808.651 1338.7 803.395 1340.86 796.592 1347.97C789.79 1355.08 787.626 1360.03 787.626 1369.62C787.626 1378.58 789.79 1384.46 796.283 1391.57C803.395 1399.61 806.796 1401.15 818.545 1401.15C829.366 1401.15 834.004 1399.3 847.918 1384.77L859.667 1391.26C865.851 1394.66 871.107 1399.3 871.107 1401.46C870.798 1403.32 866.16 1409.81 860.285 1415.37C854.411 1420.63 843.589 1426.81 836.478 1428.67C829.057 1430.52 817.617 1431.14 810.815 1430.21C804.013 1429.29 793.5 1425.88 787.626 1422.79C781.751 1419.7 772.785 1411.66 768.147 1404.86C763.2 1397.75 758.562 1386.93 757.635 1378.89C756.707 1370.85 757.635 1359.72 759.799 1352.61C761.963 1345.81 766.292 1336.53 769.384 1331.59Z" fill="#897054"/>
<path d="M599.021 1428.36V1368.07V1307.78H628.393L665.496 1364.98L667.042 1307.78L696.415 1309.33V1426.81L671.68 1428.67L631.485 1364.98L628.393 1426.81L599.021 1428.36Z" fill="#897054"/>
<path d="M484.002 1324.79C489.568 1319.84 498.534 1313.97 504.1 1311.8C509.665 1309.95 518.322 1308.09 523.269 1308.09C528.216 1307.78 537.492 1309.33 543.367 1311.18C549.241 1313.35 557.899 1317.37 562.536 1320.77C567.483 1323.86 571.194 1328.5 571.194 1330.97C571.194 1333.44 566.865 1338.39 561.918 1341.79C553.57 1347.36 552.024 1347.66 544.913 1343.34C540.584 1340.86 531.617 1338.7 524.506 1338.7C514.612 1338.7 509.974 1340.55 502.863 1347.97C496.988 1354.16 493.896 1360.34 493.896 1366.52C493.896 1371.47 496.061 1380.13 498.534 1385.07C501.008 1390.02 507.81 1396.2 513.066 1398.68C518.632 1401.15 526.67 1402.39 530.999 1401.77C535.328 1401.15 541.511 1397.75 551.096 1387.86L518.632 1388.17L520.177 1361.89L586.653 1360.34V1371.78C586.653 1378.27 583.87 1389.09 580.779 1395.9C577.687 1402.7 571.812 1411.35 567.793 1415.06C563.773 1418.77 555.116 1424.03 548.623 1426.5C542.439 1429.29 531.927 1431.45 525.434 1431.14C519.25 1431.14 509.665 1429.29 504.718 1427.43C499.462 1425.27 492.35 1421.56 488.949 1419.08C485.239 1416.61 478.746 1408.88 474.108 1402.08C469.78 1395.28 465.142 1383.53 464.214 1375.8C462.977 1365.91 463.905 1357.87 468.234 1347.97C471.326 1340.55 478.437 1330.04 484.002 1324.79Z" fill="#897054"/>
<path d="M422.783 1428.36V1368.07V1307.78H450.61V1428.36H422.783Z" fill="#897054"/>
<path d="M330.026 1428.36V1368.07V1307.78H404.232V1335.61H357.853V1354.16L399.594 1355.7L401.14 1381.98L380.424 1382.6C360.018 1383.53 359.399 1383.84 357.853 1400.53H404.232V1428.36H330.026Z" fill="#897054"/>
<path d="M221.192 1370.23C220.883 1338.08 221.81 1310.87 223.356 1309.95C224.902 1308.71 238.507 1307.78 253.966 1307.78C278.083 1307.47 283.648 1308.71 292.924 1314.58C298.799 1318.6 306.219 1327.26 309.62 1334.06C313.33 1342.1 314.567 1349.83 313.64 1355.7C312.403 1360.65 308.383 1369.93 296.943 1386.62L307.147 1405.17C312.712 1415.37 316.732 1424.65 315.804 1426.19C315.186 1427.43 308.383 1428.36 300.654 1428.36C287.049 1428.36 286.431 1428.05 276.537 1410.74C269.426 1398.37 264.169 1392.49 259.532 1392.19C253.039 1391.26 252.729 1392.49 252.729 1428.36H221.81L221.192 1370.23Z" fill="#897054"/>
<path d="M252.729 1363.43V1349.52V1335.61H265.096C271.898 1335.61 279.628 1337.77 282.101 1340.24C284.575 1342.72 286.739 1346.43 286.739 1347.97C286.739 1349.52 285.503 1353.85 283.647 1357.25C281.174 1362.2 277.464 1363.43 252.729 1363.43Z" fill="white"/>
<path d="M102.463 1329.73C107.719 1323.86 117.613 1316.44 124.415 1313.35C132.454 1309.64 141.73 1308.09 150.696 1308.71C158.426 1309.33 170.175 1312.42 176.978 1315.82C183.78 1319.53 193.365 1328.19 198.621 1335.3C205.732 1345.5 208.206 1352.61 208.824 1365.91C209.752 1379.82 208.515 1386.31 202.64 1397.44C198.312 1405.17 189.654 1415.37 182.852 1420.01C175.122 1425.58 165.228 1429.59 155.334 1430.52C142.658 1432.07 136.783 1431.14 121.942 1424.34C107.719 1417.54 102.772 1413.21 95.97 1401.15C91.6413 1393.11 87.0035 1381.67 86.3851 1375.8C85.4575 1369.92 86.6943 1359.41 89.1678 1352.61C91.3321 1345.81 97.5159 1335.61 102.463 1329.73Z" fill="#897054"/>
<path d="M116.686 1368.69C116.995 1360.03 119.468 1354.16 125.961 1347.67C133.073 1340.55 137.401 1338.7 148.223 1338.7C158.735 1338.7 163.373 1340.25 170.175 1347.05C176.05 1352.92 179.142 1359.41 179.451 1366.83C179.76 1373.02 177.905 1381.67 175.431 1386.31C172.958 1390.95 166.156 1396.51 160.9 1398.99C153.17 1402.39 148.223 1403.01 139.875 1400.53C134 1398.99 126.27 1393.73 122.869 1389.09C118.85 1383.53 116.686 1376.11 116.686 1368.69Z" fill="white"/>
<path d="M0.121296 1371.16C-0.187893 1340.86 0.121296 1313.97 0.739675 1311.8C1.66724 1308.71 11.8705 1307.78 76.491 1307.78V1335.61H30.1126V1354.16H73.3991V1381.98L31.6586 1383.53L30.1126 1428.36L0.739675 1426.81L0.121296 1371.16Z" fill="#897054"/>
<path d="M1131.44 1038.19C1132.99 1033.24 1138.56 1026.75 1144.12 1023.35H1143.81C1152.78 1017.78 1159.58 1017.16 1254.5 1017.16V1085.18C1254.5 1138.36 1253.57 1155.36 1249.86 1163.09C1247.39 1168.66 1241.83 1175.46 1237.19 1177.93C1231 1181.33 1220.49 1182.26 1197.61 1181.95C1180.3 1181.33 1160.2 1180.1 1138.56 1176.39L1137.01 1147.01L1170.09 1147.32C1188.64 1147.63 1205.34 1147.63 1207.2 1147.32C1209.36 1147.32 1211.22 1143 1211.22 1137.74C1211.22 1128.77 1210.91 1128.46 1201.01 1130.63C1195.76 1132.17 1181.84 1133.1 1170.4 1133.1C1150.92 1133.1 1148.76 1132.48 1129.28 1113.01V1079.62C1129.28 1061.38 1130.21 1042.83 1131.44 1038.19Z" fill="#897054"/>
<path d="M1170.4 1076.52C1170.09 1064.78 1171.02 1054.26 1172.57 1053.34C1174.11 1052.1 1183.39 1051.17 1211.21 1051.17V1074.36C1211.21 1096 1210.6 1097.55 1204.41 1099.09C1200.39 1100.02 1193.59 1100.64 1188.95 1100.64C1184.01 1100.64 1178.13 1100.02 1175.66 1099.09C1172.26 1097.86 1171.02 1091.98 1170.4 1076.52Z" fill="white"/>
<path d="M541.82 1125.37C538.419 1118.26 537.183 1104.35 537.183 1066.63V1017.16H577.377L577.686 1027.06V1069.72C577.377 1092.29 578.305 1103.42 581.087 1106.2C583.252 1108.37 588.508 1110.22 592.837 1109.91C597.165 1109.91 605.823 1108.37 623.756 1103.73V1017.16H663.641L662.404 1139.29L646.945 1140.21C635.814 1140.83 630.249 1139.9 627.775 1136.5C624.065 1132.17 621.9 1132.17 605.204 1137.74C595.001 1141.14 582.324 1143.92 577.377 1143.92C572.43 1143.92 563.155 1141.76 557.28 1139.29C551.096 1136.81 544.294 1130.63 541.82 1125.37Z" fill="#897054"/>
<path d="M1029.41 1022.73C1033.43 1020.87 1039.92 1018.09 1044.25 1016.86C1048.58 1015.62 1059.4 1014.38 1068.06 1014.38C1077.03 1014.07 1088.16 1015.93 1093.1 1018.4C1097.74 1020.57 1103.31 1025.82 1105.47 1029.84C1108.26 1035.41 1109.18 1051.17 1107.64 1139.29H1070.53L1067.44 1049.63L1056.62 1048.7C1050.75 1048.08 1041.16 1048.39 1025.7 1051.17L1024.16 1139.29H983.961L982.415 1017.16H1000.97C1014.57 1017.16 1019.83 1018.4 1021.06 1021.8C1022.3 1025.51 1023.85 1025.82 1029.41 1022.73Z" fill="#897054"/>
<path d="M837.097 1031.69C838.952 1027.98 844.208 1022.42 848.846 1019.64C855.648 1015.31 864.615 1014.07 896.461 1014.07C918.414 1014.07 939.438 1015.31 943.767 1017.16C948.096 1019.02 954.279 1024.89 957.681 1030.15C963.555 1039.42 964.174 1044.37 963.246 1081.16C962.318 1119.81 962.009 1122.28 954.589 1130.01C950.26 1134.34 941.912 1139.59 936.037 1141.45C930.163 1143 909.756 1143.92 891.205 1143.3C866.47 1142.38 855.03 1140.83 849.464 1137.12C845.136 1134.34 839.879 1128.46 837.715 1124.14C835.551 1118.88 834.005 1102.19 834.005 1077.45C834.005 1056.12 835.551 1035.71 837.097 1031.69Z" fill="#897054"/>
<path d="M873.581 1077.14C873.272 1063.54 874.199 1051.17 875.745 1050.25C877.291 1049.01 887.803 1048.08 920.577 1048.08V1077.45C920.577 1100.95 919.65 1107.13 915.94 1108.37C913.466 1109.3 904.809 1109.91 896.461 1109.91C888.422 1109.91 880.074 1108.37 877.909 1106.2C875.436 1103.73 873.89 1092.6 873.581 1077.14Z" fill="white"/>
<path d="M770.621 1015.62L771.548 996.45L772.476 976.973H812.361L810.815 1139.29L795.356 1140.21C784.225 1140.83 778.66 1139.9 775.877 1136.5C772.476 1132.18 770.312 1132.18 753.615 1137.74C743.412 1141.14 730.735 1143.92 725.788 1143.92C720.841 1143.92 711.566 1141.76 705.691 1139.29C699.507 1136.81 692.705 1130.63 690.232 1125.37C686.831 1118.57 685.594 1105.59 685.594 1077.45C685.594 1039.12 685.594 1038.81 694.56 1028.6C703.5 1018.74 704.141 1018.71 770.019 1015.65L770.621 1015.62Z" fill="#897054"/>
<path d="M725.788 1079C725.788 1068.8 726.716 1058.28 727.643 1055.81C728.88 1052.41 734.755 1051.17 772.166 1051.17V1103.73L760.417 1106.82C754.233 1108.37 745.267 1109.91 740.32 1109.91C735.064 1109.91 730.735 1107.75 728.88 1103.73C727.025 1100.33 725.788 1089.2 725.788 1079Z" fill="white"/>
<path d="M393.41 1139.29L392.483 1058.28L391.864 976.973H432.677L433.605 1015.62L465.451 1014.69C496.679 1014.07 496.989 1014.07 515.54 1032.62V1074.98C515.849 1113.01 515.231 1118.57 509.356 1125.99C505.955 1130.94 497.916 1136.19 491.732 1138.05C485.239 1139.6 460.813 1140.83 393.41 1139.29Z" fill="#897054"/>
<path d="M432.677 1083.64C432.058 1071.58 432.677 1058.9 433.604 1054.88C435.459 1048.39 437.005 1047.77 473.799 1049.63L474.417 1076.83C475.345 1102.49 475.036 1103.73 468.543 1105.59C464.523 1106.51 455.247 1106.82 433.604 1105.28L432.677 1083.64Z" fill="white"/>
<path d="M311.164 298.349C337.445 271.452 550.477 52.5602 601.493 0.00166035V0C601.493 0 793.5 191.686 819.781 218.893C846.68 191.068 1007.77 28.7547 1036.21 0.00205135C1036.21 0.00205135 1106.09 67.7099 1332.73 301.441L1332.42 902.772C1332.42 902.772 979.576 903.7 741.5 903.082C741.5 903.082 310.561 901.846 309.928 901.536C309.928 901.967 309.928 902.396 309.928 902.824V903.082C309.927 901.536 309.309 901.536 309.927 901.536C309.927 901.536 309.928 901.536 309.928 901.536C309.928 735.578 309.931 300.815 311.164 298.349Z" fill="#897054"/>
<path d="M784.535 483.85L911.612 351.836V351.526C981.488 278.872 1039.62 219.512 1040.85 219.512C1041.78 219.512 1045.49 222.603 1048.89 226.313C1052.6 230.333 1083.52 262.486 1180.61 363.275L1180 751.281H1125H1067.44H1050.5H1030.5C1030.5 751.281 1028.79 718.509 1028.79 497.763L798.448 498.072L784.535 483.85Z" fill="white"/>
<path d="M461.741 364.821L532.546 292.166C571.503 252.284 603.968 219.821 604.277 219.821C604.896 219.821 629.322 244.245 658.386 274.234C687.759 304.224 711.875 330.503 711.875 332.976C711.875 335.141 680.338 369.767 571.194 482.614L581.088 494.053C586.344 500.546 622.829 538.882 733.519 652.656L875.746 654.202V746.952L462.978 748.498L461.741 364.821Z" fill="white"/>
</svg>
